# This file uses meters as units for non-parametric coordinates.

mtllib WallWindowOBJ.mtl
g default
v -10.000002 0.000000 150.000000
v 10.000000 0.000000 150.000000
v -10.000000 300.000000 150.000000
v 10.000000 300.000000 150.000000
v -10.000000 300.000000 -150.000000
v 10.000000 300.000000 -150.000000
v -10.000002 0.000000 -150.000000
v 10.000000 0.000000 -150.000000
v 9.999998 16.796753 150.000000
v -10.000002 16.796753 150.000000
v -9.999998 16.796753 -150.000000
v 10.000002 16.796753 -150.000000
v 10.000002 0.000000 -150.000000
v 10.000002 0.000000 150.000000
v 10.000111 16.796753 -150.000000
v 10.000114 16.796753 150.000000
v 10.000002 13.437408 150.000000
v 9.999998 13.437408 -150.000000
v 9.999998 5.039032 150.000000
v 10.000002 4.031219 -150.000000
v 12.247717 13.437408 -150.000000
v 12.247713 0.000000 -150.000000
v 12.247717 0.000000 150.000000
v 14.213671 0.000000 -150.000000
v 14.213671 0.000000 150.000000
v 14.213572 4.031219 -150.000000
v 14.213571 5.039032 150.000000
v 12.247715 7.004807 150.000000
v 10.569837 5.039032 150.000000
v 12.247715 3.361145 150.000000
v 12.247715 2.353333 -150.000000
v 10.569834 4.031219 -150.000000
v 12.247715 5.996994 -150.000000
v 12.247715 14.549255 -150.000000
v 12.247715 14.549255 150.000000
v 10.000000 101.757729 150.000000
v 10.000000 101.757729 -150.000000
v -10.000000 101.757729 -150.000000
v -10.000000 101.757729 150.000000
vt 0.000000 0.000000
vt 0.000000 0.000000
vt 0.000000 1.000000
vt 0.000000 1.000000
vt 1.000000 1.000000
vt 1.000000 1.000000
vt 1.000000 0.000000
vt 1.000000 0.000000
vt 0.000000 0.055989
vt 0.000000 0.055989
vt 1.000000 0.055989
vt 1.000000 0.055989
vt 1.000000 0.000000
vt 0.000000 0.044791
vt 1.000000 0.000000
vt 0.000000 0.000000
vt 0.000000 0.000000
vt 0.000000 0.016797
vt 0.000000 0.000000
vt 0.000000 0.011204
vt 1.000000 0.000000
vt 1.000000 0.013437
vt 1.000000 0.044791
vt 1.000000 0.013437
vt 0.000000 0.023349
vt 0.000000 0.016797
vt 1.000000 0.007844
vt 1.000000 0.013437
vt 1.000000 0.019992
vt 1.000000 0.055989
vt 0.000000 0.016797
vt 1.000000 0.044791
vt 1.000000 0.048503
vt 0.000000 0.055989
vt 0.000000 0.048498
vt -2.871071 -2.682328
vt 3.871071 -2.682328
vt 0.000000 0.339192
vt -2.871071 -0.772931
vt 1.000000 0.339192
vt 3.871071 -0.772931
vt 1.000000 0.339192
vt 0.000000 0.339192
vn 0.000000 0.000000 1.000000
vn 0.000000 0.000000 1.000000
vn 0.000000 0.000000 1.000000
vn 0.000000 0.000000 1.000000
vn 0.000000 0.000000 1.000000
vn 0.000000 1.000000 0.000000
vn 0.000000 1.000000 0.000000
vn 0.000000 1.000000 0.000000
vn 0.000000 1.000000 0.000000
vn 0.000000 0.000000 -1.000000
vn 0.000000 0.000000 -1.000000
vn 0.000000 0.000000 -1.000000
vn 0.000000 0.000000 -1.000000
vn 0.000000 -1.000000 0.000000
vn 0.000000 -1.000000 0.000000
vn 0.000000 -1.000000 0.000000
vn 0.000000 -1.000000 0.000000
vn 1.000000 0.000000 0.000000
vn 1.000000 0.000000 0.000000
vn 1.000000 0.000000 0.000000
vn 1.000000 0.000000 0.000000
vn 1.000000 0.000000 0.000000
vn -1.000000 0.000000 -0.000000
vn -1.000000 0.000000 -0.000000
vn -1.000000 0.000000 -0.000000
vn -1.000000 0.000000 -0.000000
vn 0.000000 0.000000 1.000000
vn 0.000000 0.000000 1.000000
vn 0.000000 0.000000 1.000000
vn 0.000000 0.000000 1.000000
vn 0.000000 0.000000 -1.000000
vn 0.000000 0.000000 -1.000000
vn 0.000000 0.000000 -1.000000
vn 0.000000 0.000000 -1.000000
vn 0.000000 -1.000000 0.000000
vn 0.000000 -1.000000 0.000000
vn 0.000000 -1.000000 0.000000
vn 0.000000 -1.000000 0.000000
vn 0.330525 0.000000 -0.943797
vn 0.330525 0.000000 -0.943797
vn 0.330525 0.000000 -0.943797
vn 0.330525 0.000000 -0.943797
vn 0.330525 0.000000 -0.943797
vn 0.330525 0.000000 -0.943797
vn 0.000000 1.000000 0.000000
vn 0.000000 1.000000 0.000000
vn 0.000000 1.000000 0.000000
vn 0.000000 1.000000 0.000000
vn 0.000000 0.000000 1.000000
vn 0.000000 0.000000 1.000000
vn 0.000000 0.000000 1.000000
vn 0.000000 0.000000 1.000000
vn 0.000000 0.000000 1.000000
vn 0.000000 0.000000 1.000000
vn 1.000000 0.000022 -0.000000
vn 1.000000 0.000022 -0.000000
vn 1.000000 0.000022 -0.000000
vn 1.000000 0.000022 -0.000000
vn 0.000001 0.000000 -1.000000
vn 0.000001 0.000000 -1.000000
vn 0.000001 0.000000 -1.000000
vn 0.000001 0.000000 -1.000000
vn 0.000001 0.000000 -1.000000
vn 0.000000 0.000000 -1.000000
vn 0.000000 0.000000 -1.000000
vn 0.000000 0.000000 1.000000
vn 0.000000 0.000000 1.000000
vn 0.000000 0.000000 1.000000
vn 0.000000 0.000000 1.000000
vn 0.000000 0.000000 1.000000
vn 0.000000 -1.000000 0.000000
vn 0.000000 -1.000000 0.000000
vn 0.000000 -1.000000 0.000000
vn 0.000000 -1.000000 0.000000
vn 0.000000 0.000000 -1.000000
vn 0.000000 0.000000 -1.000000
vn 0.000000 0.000000 -1.000000
vn 0.000000 0.000000 1.000000
vn 0.000000 0.000000 1.000000
vn 0.000000 0.000000 1.000000
vn 0.000000 -1.000000 0.000000
vn 0.000000 -1.000000 0.000000
vn 0.000000 0.000000 -1.000000
vn 0.000000 0.000000 -1.000000
vn 0.000000 0.000000 1.000000
vn 0.000000 0.000000 1.000000
vn 0.707090 0.707120 -0.002375
vn 0.707090 0.707119 -0.002375
vn 0.707090 0.707120 -0.002375
vn 0.707090 0.707119 -0.002375
vn 0.707090 0.707123 0.000000
vn 0.707090 0.707123 0.000000
vn 0.707090 0.707123 0.000000
vn 0.707090 0.707123 0.000000
vn 1.000000 0.000000 0.000000
vn 1.000000 0.000000 0.000000
vn 1.000000 0.000000 0.000000
vn 1.000000 0.000000 0.000000
vn -1.000000 0.000000 -0.000000
vn -1.000000 0.000000 -0.000000
vn 0.000000 1.000000 0.000000
vn 0.000000 1.000000 0.000000
vn 0.000000 1.000000 0.000000
vn 0.000000 1.000000 0.000000
s 1
g pCube1
usemtl lambert2SG
f 1/1/1 2/2/2 17/14/3 9/9/4 10/10/5
s off
f 3/4/6 4/3/7 6/5/8 5/6/9
s 2
f 11/11/10 12/12/11 8/7/12 7/8/13
s off
f 7/8/14 8/7/15 2/2/16 1/1/17
usemtl lambert3SG
f 28/25/18 33/29/19 21/32/20 34/33/21 35/35/22
s 3
usemtl lambert2SG
f 7/8/23 1/1/24 10/10/25 11/11/26
s 4
f 39/43/27 36/38/28 4/3/29 3/4/30
f 5/6/31 6/5/32 37/40/33 38/42/34
s off
f 2/2/35 8/7/36 13/13/37 14/19/38
f 8/7/39 12/12/40 15/30/41 18/23/42 20/22/43 13/13/44
f 12/12/45 9/9/46 16/34/47 15/30/48
f 9/9/49 17/14/50 2/2/51 14/19/52 19/31/53 16/34/54
usemtl lambert3SG
f 25/17/55 24/15/56 26/24/57 27/18/58
s 5
f 20/22/59 18/23/60 21/32/61 33/29/62 32/28/63
f 18/23/60 15/30/64 34/33/65 21/32/61
s 6
f 16/34/66 19/31/67 29/26/68 28/25/69 35/35/70
s 7
f 14/19/71 13/13/72 22/21/73 23/16/74
s 5
f 13/13/75 20/22/59 32/28/63 31/27/76 22/21/77
s 6
f 19/31/67 14/19/78 23/16/79 30/20/80 29/26/68
s 7
f 23/16/74 22/21/73 24/15/81 25/17/82
s 5
f 22/21/77 31/27/76 26/24/83 24/15/84
s 6
f 27/18/85 30/20/80 23/16/79 25/17/86
s off
f 28/25/87 27/18/88 26/24/89 33/29/90
s 6
f 27/18/85 28/25/69 29/26/68 30/20/80
s 5
f 26/24/83 31/27/76 32/28/63 33/29/62
s off
f 34/33/91 15/30/92 16/34/93 35/35/94
usemtl lambert2SG
f 9/36/95 12/37/96 37/41/97 36/39/98
s 2
f 38/42/34 37/40/33 12/12/11 11/11/10
s 3
f 11/11/26 10/10/25 39/43/99 38/42/100
s 1
f 10/10/5 9/9/4 36/38/28 39/43/27
s 4
f 36/39/101 37/41/102 38/42/103 39/43/104
