# This file uses centimeters as units for non-parametric coordinates.

mtllib RugOBJ.mtl
g default
v -3.246653 -0.000000 14.054761
v 13.075815 -0.000000 14.054761
v -3.246653 0.287419 14.054761
v 13.075815 0.287419 14.054761
v -3.246653 0.287419 -13.239327
v 13.075815 0.287419 -13.239327
v -3.246653 -0.000000 -13.239327
v 13.075815 -0.000000 -13.239327
v -3.020608 0.384173 13.676775
v 12.849770 0.384173 13.676775
v 12.849770 0.384173 -12.861340
v -3.020608 0.384173 -12.861340
vt -0.866046 -1.784273
vt 1.866046 -1.784273
vt 1.866046 -1.784273
vt -0.866046 -1.784273
vt -0.828210 -1.721005
vt 1.828210 -1.721005
vt 1.828210 2.721004
vt -0.828210 2.721004
vt -0.866046 2.784273
vt 1.866046 2.784273
vt 1.866046 2.784273
vt -0.866046 2.784273
vn 0.000000 0.000000 1.000000
vn 0.000000 0.000000 1.000000
vn 0.000000 0.000000 1.000000
vn 0.000000 0.000000 1.000000
vn 0.000000 1.000000 0.000000
vn 0.000000 1.000000 0.000000
vn 0.000000 1.000000 0.000000
vn 0.000000 1.000000 0.000000
vn 0.000000 0.000000 -1.000000
vn 0.000000 0.000000 -1.000000
vn 0.000000 0.000000 -1.000000
vn 0.000000 0.000000 -1.000000
vn 0.000000 -1.000000 0.000000
vn 0.000000 -1.000000 0.000000
vn 0.000000 -1.000000 0.000000
vn 0.000000 -1.000000 0.000000
vn 1.000000 0.000000 0.000000
vn 1.000000 0.000000 0.000000
vn 1.000000 0.000000 0.000000
vn 1.000000 0.000000 0.000000
vn -1.000000 0.000000 0.000000
vn -1.000000 0.000000 0.000000
vn -1.000000 0.000000 0.000000
vn -1.000000 0.000000 0.000000
vn 0.000000 0.968766 0.247977
vn 0.000000 0.968766 0.247977
vn 0.000000 0.968766 0.247977
vn 0.000000 0.968766 0.247977
vn 0.393499 0.919325 0.000000
vn 0.393499 0.919325 0.000000
vn 0.393499 0.919325 0.000000
vn 0.393499 0.919325 0.000000
vn 0.000000 0.968766 -0.247977
vn 0.000000 0.968766 -0.247977
vn 0.000000 0.968766 -0.247977
vn 0.000000 0.968766 -0.247977
vn -0.393500 0.919325 0.000000
vn -0.393500 0.919325 0.000000
vn -0.393500 0.919325 0.000000
vn -0.393500 0.919325 0.000000
s off
g pCube1
usemtl lambert2SG
f 1/1/1 2/2/2 4/3/3 3/4/4
f 9/5/5 10/6/6 11/7/7 12/8/8
f 5/9/9 6/10/10 8/11/11 7/12/12
f 7/12/13 8/11/14 2/2/15 1/1/16
f 2/2/17 8/11/18 6/10/19 4/3/20
f 7/12/21 1/1/22 3/4/23 5/9/24
f 3/4/25 4/3/26 10/6/27 9/5/28
f 4/3/29 6/10/30 11/7/31 10/6/32
f 6/10/33 5/9/34 12/8/35 11/7/36
f 5/9/37 3/4/38 9/5/39 12/8/40
